<svg id="Hexels SVG Export" xmlns="http://www.w3.org/2000/svg" version="1.1" xmlns:xlink="http://www.w3.org/1999/xlink" viewBox="0 -0 1999 2000" xml:space="preserve">
<g id="Root" transform="matrix(1.000, 0.000, 0.000, 1.000, 0.000, -0.000)">
<g id="Layer 1" transform="matrix(1.000, 0.000, 0.000, 1.000, 0.000, -0.000)">
<g id="Hexels">
</g>
<g id="Outlines">
<polygon points="93.28, 120.00  93.28, 127.84, 79.95, 127.84,  79.95, 120.00" style="fill:#ff0037;fill-opacity:1.00"/>
<polygon points="99.94, 120.00  99.94, 127.84, 93.28, 127.84,  93.28, 120.00" style="fill:#ff0037;fill-opacity:1.00"/>
<polygon points="106.60, 120.00  106.60, 127.84, 99.94, 127.84,  99.94, 120.00" style="fill:#ff0037;fill-opacity:1.00"/>
<polygon points="119.93, 120.00  119.93, 127.84, 106.60, 127.84,  106.60, 120.00" style="fill:#ff0037;fill-opacity:1.00"/>
<polygon points="133.25, 120.00  133.25, 127.84, 119.93, 127.84,  119.93, 120.00" style="fill:#ff0037;fill-opacity:1.00"/>
<polygon points="139.91, 120.00  139.91, 127.84, 133.25, 127.84,  133.25, 120.00" style="fill:#ff0037;fill-opacity:1.00"/>
<polygon points="146.58, 120.00  146.58, 127.84, 139.91, 127.84,  139.91, 120.00" style="fill:#ff0037;fill-opacity:1.00"/>
<polygon points="159.90, 120.00  159.90, 127.84, 146.58, 127.84,  146.58, 120.00" style="fill:#ff0037;fill-opacity:1.00"/>
<polygon points="173.23, 120.00  173.23, 127.84, 159.90, 127.84,  159.90, 120.00" style="fill:#ff0037;fill-opacity:1.00"/>
<polygon points="179.89, 120.00  179.89, 127.84, 173.23, 127.84,  173.23, 120.00" style="fill:#ff0037;fill-opacity:1.00"/>
<polygon points="186.55, 120.00  186.55, 127.84, 179.89, 127.84,  179.89, 120.00" style="fill:#ff0037;fill-opacity:1.00"/>
<polygon points="199.88, 120.00  199.88, 127.84, 186.55, 127.84,  186.55, 120.00" style="fill:#ff0037;fill-opacity:1.00"/>
<polygon points="213.20, 120.00  213.20, 127.84, 199.88, 127.84,  199.88, 120.00" style="fill:#ff0037;fill-opacity:1.00"/>
<polygon points="219.87, 120.00  219.87, 127.84, 213.20, 127.84,  213.20, 120.00" style="fill:#ff0037;fill-opacity:1.00"/>
<polygon points="226.53, 120.00  226.53, 127.84, 219.87, 127.84,  219.87, 120.00" style="fill:#ff0037;fill-opacity:1.00"/>
<polygon points="239.85, 120.00  239.85, 127.84, 226.53, 127.84,  226.53, 120.00" style="fill:#ff0037;fill-opacity:1.00"/>
<polygon points="253.18, 120.00  253.18, 127.84, 239.85, 127.84,  239.85, 120.00" style="fill:#ff0037;fill-opacity:1.00"/>
<polygon points="259.84, 120.00  259.84, 127.84, 253.18, 127.84,  253.18, 120.00" style="fill:#ff0037;fill-opacity:1.00"/>
<polygon points="266.50, 120.00  266.50, 127.84, 259.84, 127.84,  259.84, 120.00" style="fill:#ff0037;fill-opacity:1.00"/>
<polygon points="279.83, 120.00  279.83, 127.84, 266.50, 127.84,  266.50, 120.00" style="fill:#ff0037;fill-opacity:1.00"/>
<polygon points="293.15, 120.00  293.15, 127.84, 279.83, 127.84,  279.83, 120.00" style="fill:#ff0037;fill-opacity:1.00"/>
<polygon points="299.82, 120.00  299.82, 127.84, 293.15, 127.84,  293.15, 120.00" style="fill:#ff0037;fill-opacity:1.00"/>
<polygon points="306.48, 120.00  306.48, 127.84, 299.82, 127.84,  299.82, 120.00" style="fill:#ff0037;fill-opacity:1.00"/>
<polygon points="319.80, 120.00  319.80, 127.84, 306.48, 127.84,  306.48, 120.00" style="fill:#ff0037;fill-opacity:1.00"/>
<polygon points="333.13, 120.00  333.13, 127.84, 319.80, 127.84,  319.80, 120.00" style="fill:#ff0037;fill-opacity:1.00"/>
<polygon points="339.79, 120.00  339.79, 127.84, 333.13, 127.84,  333.13, 120.00" style="fill:#ff0037;fill-opacity:1.00"/>
<polygon points="346.45, 120.00  346.45, 127.84, 339.79, 127.84,  339.79, 120.00" style="fill:#ff0037;fill-opacity:1.00"/>
<polygon points="359.78, 120.00  359.78, 127.84, 346.45, 127.84,  346.45, 120.00" style="fill:#ff0037;fill-opacity:1.00"/>
<polygon points="373.10, 120.00  373.10, 127.84, 359.78, 127.84,  359.78, 120.00" style="fill:#ff0037;fill-opacity:1.00"/>
<polygon points="379.77, 120.00  379.77, 127.84, 373.10, 127.84,  373.10, 120.00" style="fill:#ff0037;fill-opacity:1.00"/>
<polygon points="386.43, 120.00  386.43, 127.84, 379.77, 127.84,  379.77, 120.00" style="fill:#ff0037;fill-opacity:1.00"/>
<polygon points="399.76, 120.00  399.76, 127.84, 386.43, 127.84,  386.43, 120.00" style="fill:#ff0037;fill-opacity:1.00"/>
<polygon points="413.08, 120.00  413.08, 127.84, 399.76, 127.84,  399.76, 120.00" style="fill:#ff0037;fill-opacity:1.00"/>
<polygon points="419.74, 120.00  419.74, 127.84, 413.08, 127.84,  413.08, 120.00" style="fill:#ff0037;fill-opacity:1.00"/>
<polygon points="426.41, 120.00  426.41, 127.84, 419.74, 127.84,  419.74, 120.00" style="fill:#ff0037;fill-opacity:1.00"/>
<polygon points="439.73, 120.00  439.73, 127.84, 426.41, 127.84,  426.41, 120.00" style="fill:#ff0037;fill-opacity:1.00"/>
<polygon points="453.06, 120.00  453.06, 127.84, 439.73, 127.84,  439.73, 120.00" style="fill:#ff0037;fill-opacity:1.00"/>
<polygon points="459.72, 120.00  459.72, 127.84, 453.06, 127.84,  453.06, 120.00" style="fill:#ff0037;fill-opacity:1.00"/>
<polygon points="466.38, 120.00  466.38, 127.84, 459.72, 127.84,  459.72, 120.00" style="fill:#ff0037;fill-opacity:1.00"/>
<polygon points="479.71, 120.00  479.71, 127.84, 466.38, 127.84,  466.38, 120.00" style="fill:#ff0037;fill-opacity:1.00"/>
<polygon points="493.03, 120.00  493.03, 127.84, 479.71, 127.84,  479.71, 120.00" style="fill:#ff0037;fill-opacity:1.00"/>
<polygon points="499.69, 120.00  499.69, 127.84, 493.03, 127.84,  493.03, 120.00" style="fill:#ff0037;fill-opacity:1.00"/>
<polygon points="506.36, 120.00  506.36, 127.84, 499.69, 127.84,  499.69, 120.00" style="fill:#ff0037;fill-opacity:1.00"/>
<polygon points="519.68, 120.00  519.68, 127.84, 506.36, 127.84,  506.36, 120.00" style="fill:#ff0037;fill-opacity:1.00"/>
<polygon points="533.01, 120.00  533.01, 127.84, 519.68, 127.84,  519.68, 120.00" style="fill:#ff0037;fill-opacity:1.00"/>
<polygon points="539.67, 120.00  539.67, 127.84, 533.01, 127.84,  533.01, 120.00" style="fill:#ff0037;fill-opacity:1.00"/>
<polygon points="546.33, 120.00  546.33, 127.84, 539.67, 127.84,  539.67, 120.00" style="fill:#ff0037;fill-opacity:1.00"/>
<polygon points="559.66, 120.00  559.66, 127.84, 546.33, 127.84,  546.33, 120.00" style="fill:#ff0037;fill-opacity:1.00"/>
<polygon points="572.98, 120.00  572.98, 127.84, 559.66, 127.84,  559.66, 120.00" style="fill:#ff0037;fill-opacity:1.00"/>
<polygon points="579.65, 120.00  579.65, 127.84, 572.98, 127.84,  572.98, 120.00" style="fill:#ff0037;fill-opacity:1.00"/>
<polygon points="586.31, 120.00  586.31, 127.84, 579.65, 127.84,  579.65, 120.00" style="fill:#ff0037;fill-opacity:1.00"/>
<polygon points="599.63, 120.00  599.63, 127.84, 586.31, 127.84,  586.31, 120.00" style="fill:#ff0037;fill-opacity:1.00"/>
<polygon points="612.96, 120.00  612.96, 127.84, 599.63, 127.84,  599.63, 120.00" style="fill:#ff0037;fill-opacity:1.00"/>
<polygon points="619.62, 120.00  619.62, 127.84, 612.96, 127.84,  612.96, 120.00" style="fill:#ff0037;fill-opacity:1.00"/>
<polygon points="626.28, 120.00  626.28, 127.84, 619.62, 127.84,  619.62, 120.00" style="fill:#ff0037;fill-opacity:1.00"/>
<polygon points="639.61, 120.00  639.61, 127.84, 626.28, 127.84,  626.28, 120.00" style="fill:#ff0037;fill-opacity:1.00"/>
<polygon points="652.93, 120.00  652.93, 127.84, 639.61, 127.84,  639.61, 120.00" style="fill:#ff0037;fill-opacity:1.00"/>
<polygon points="659.60, 120.00  659.60, 127.84, 652.93, 127.84,  652.93, 120.00" style="fill:#ff0037;fill-opacity:1.00"/>
<polygon points="666.26, 120.00  666.26, 127.84, 659.60, 127.84,  659.60, 120.00" style="fill:#ff0037;fill-opacity:1.00"/>
<polygon points="679.58, 120.00  679.58, 127.84, 666.26, 127.84,  666.26, 120.00" style="fill:#ff0037;fill-opacity:1.00"/>
<polygon points="692.91, 120.00  692.91, 127.84, 679.58, 127.84,  679.58, 120.00" style="fill:#ff0037;fill-opacity:1.00"/>
<polygon points="699.57, 120.00  699.57, 127.84, 692.91, 127.84,  692.91, 120.00" style="fill:#ff0037;fill-opacity:1.00"/>
<polygon points="706.23, 120.00  706.23, 127.84, 699.57, 127.84,  699.57, 120.00" style="fill:#ff0037;fill-opacity:1.00"/>
<polygon points="719.56, 120.00  719.56, 127.84, 706.23, 127.84,  706.23, 120.00" style="fill:#ff0037;fill-opacity:1.00"/>
<polygon points="732.88, 120.00  732.88, 127.84, 719.56, 127.84,  719.56, 120.00" style="fill:#ff0037;fill-opacity:1.00"/>
<polygon points="739.55, 120.00  739.55, 127.84, 732.88, 127.84,  732.88, 120.00" style="fill:#ff0037;fill-opacity:1.00"/>
<polygon points="746.21, 120.00  746.21, 127.84, 739.55, 127.84,  739.55, 120.00" style="fill:#ff0037;fill-opacity:1.00"/>
<polygon points="759.53, 120.00  759.53, 127.84, 746.21, 127.84,  746.21, 120.00" style="fill:#ff0037;fill-opacity:1.00"/>
<polygon points="772.86, 120.00  772.86, 127.84, 759.53, 127.84,  759.53, 120.00" style="fill:#ff0037;fill-opacity:1.00"/>
<polygon points="779.52, 120.00  779.52, 127.84, 772.86, 127.84,  772.86, 120.00" style="fill:#ff0037;fill-opacity:1.00"/>
<polygon points="786.19, 120.00  786.19, 127.84, 779.52, 127.84,  779.52, 120.00" style="fill:#ff0037;fill-opacity:1.00"/>
<polygon points="799.51, 120.00  799.51, 127.84, 786.19, 127.84,  786.19, 120.00" style="fill:#ff0037;fill-opacity:1.00"/>
<polygon points="812.84, 120.00  812.84, 127.84, 799.51, 127.84,  799.51, 120.00" style="fill:#ff0037;fill-opacity:1.00"/>
<polygon points="819.50, 120.00  819.50, 127.84, 812.84, 127.84,  812.84, 120.00" style="fill:#ff0037;fill-opacity:1.00"/>
<polygon points="826.16, 120.00  826.16, 127.84, 819.50, 127.84,  819.50, 120.00" style="fill:#ff0037;fill-opacity:1.00"/>
<polygon points="839.49, 120.00  839.49, 127.84, 826.16, 127.84,  826.16, 120.00" style="fill:#ff0037;fill-opacity:1.00"/>
<polygon points="852.81, 120.00  852.81, 127.84, 839.49, 127.84,  839.49, 120.00" style="fill:#ff0037;fill-opacity:1.00"/>
<polygon points="859.47, 120.00  859.47, 127.84, 852.81, 127.84,  852.81, 120.00" style="fill:#ff0037;fill-opacity:1.00"/>
<polygon points="866.14, 120.00  866.14, 127.84, 859.47, 127.84,  859.47, 120.00" style="fill:#ff0037;fill-opacity:1.00"/>
<polygon points="879.46, 120.00  879.46, 127.84, 866.14, 127.84,  866.14, 120.00" style="fill:#ff0037;fill-opacity:1.00"/>
<polygon points="892.79, 120.00  892.79, 127.84, 879.46, 127.84,  879.46, 120.00" style="fill:#ff0037;fill-opacity:1.00"/>
<polygon points="899.45, 120.00  899.45, 127.84, 892.79, 127.84,  892.79, 120.00" style="fill:#ff0037;fill-opacity:1.00"/>
<polygon points="906.11, 120.00  906.11, 127.84, 899.45, 127.84,  899.45, 120.00" style="fill:#ff0037;fill-opacity:1.00"/>
<polygon points="919.44, 120.00  919.44, 127.84, 906.11, 127.84,  906.11, 120.00" style="fill:#ff0037;fill-opacity:1.00"/>
<polygon points="932.76, 120.00  932.76, 127.84, 919.44, 127.84,  919.44, 120.00" style="fill:#ff0037;fill-opacity:1.00"/>
<polygon points="939.42, 120.00  939.42, 127.84, 932.76, 127.84,  932.76, 120.00" style="fill:#ff0037;fill-opacity:1.00"/>
<polygon points="946.09, 120.00  946.09, 127.84, 939.42, 127.84,  939.42, 120.00" style="fill:#ff0037;fill-opacity:1.00"/>
<polygon points="959.41, 120.00  959.41, 127.84, 946.09, 127.84,  946.09, 120.00" style="fill:#ff0037;fill-opacity:1.00"/>
<polygon points="972.74, 120.00  972.74, 127.84, 959.41, 127.84,  959.41, 120.00" style="fill:#ff0037;fill-opacity:1.00"/>
<polygon points="979.40, 120.00  979.40, 127.84, 972.74, 127.84,  972.74, 120.00" style="fill:#ff0037;fill-opacity:1.00"/>
<polygon points="986.06, 120.00  986.06, 127.84, 979.40, 127.84,  979.40, 120.00" style="fill:#ff0037;fill-opacity:1.00"/>
<polygon points="999.39, 120.00  999.39, 127.84, 986.06, 127.84,  986.06, 120.00" style="fill:#ff0037;fill-opacity:1.00"/>
<polygon points="1012.71, 120.00  1012.71, 127.84, 999.39, 127.84,  999.39, 120.00" style="fill:#ff0037;fill-opacity:1.00"/>
<polygon points="1019.38, 120.00  1019.38, 127.84, 1012.71, 127.84,  1012.71, 120.00" style="fill:#ff0037;fill-opacity:1.00"/>
<polygon points="1026.04, 120.00  1026.04, 127.84, 1019.38, 127.84,  1019.38, 120.00" style="fill:#ff0037;fill-opacity:1.00"/>
<polygon points="1039.36, 120.00  1039.36, 127.84, 1026.04, 127.84,  1026.04, 120.00" style="fill:#ff0037;fill-opacity:1.00"/>
<polygon points="1052.69, 120.00  1052.69, 127.84, 1039.36, 127.84,  1039.36, 120.00" style="fill:#ff0037;fill-opacity:1.00"/>
<polygon points="1059.35, 120.00  1059.35, 127.84, 1052.69, 127.84,  1052.69, 120.00" style="fill:#ff0037;fill-opacity:1.00"/>
<polygon points="1066.01, 120.00  1066.01, 127.84, 1059.35, 127.84,  1059.35, 120.00" style="fill:#ff0037;fill-opacity:1.00"/>
<polygon points="1079.34, 120.00  1079.34, 127.84, 1066.01, 127.84,  1066.01, 120.00" style="fill:#ff0037;fill-opacity:1.00"/>
<polygon points="1092.66, 120.00  1092.66, 127.84, 1079.34, 127.84,  1079.34, 120.00" style="fill:#ff0037;fill-opacity:1.00"/>
<polygon points="1099.33, 120.00  1099.33, 127.84, 1092.66, 127.84,  1092.66, 120.00" style="fill:#ff0037;fill-opacity:1.00"/>
<polygon points="1105.99, 120.00  1105.99, 127.84, 1099.33, 127.84,  1099.33, 120.00" style="fill:#ff0037;fill-opacity:1.00"/>
<polygon points="1119.31, 120.00  1119.31, 127.84, 1105.99, 127.84,  1105.99, 120.00" style="fill:#ff0037;fill-opacity:1.00"/>
<polygon points="1132.64, 120.00  1132.64, 127.84, 1119.31, 127.84,  1119.31, 120.00" style="fill:#ff0037;fill-opacity:1.00"/>
<polygon points="1139.30, 120.00  1139.30, 127.84, 1132.64, 127.84,  1132.64, 120.00" style="fill:#ff0037;fill-opacity:1.00"/>
<polygon points="1145.96, 120.00  1145.96, 127.84, 1139.30, 127.84,  1139.30, 120.00" style="fill:#ff0037;fill-opacity:1.00"/>
<polygon points="1159.29, 120.00  1159.29, 127.84, 1145.96, 127.84,  1145.96, 120.00" style="fill:#ff0037;fill-opacity:1.00"/>
<polygon points="1172.62, 120.00  1172.62, 127.84, 1159.29, 127.84,  1159.29, 120.00" style="fill:#ff0037;fill-opacity:1.00"/>
<polygon points="1179.28, 120.00  1179.28, 127.84, 1172.62, 127.84,  1172.62, 120.00" style="fill:#ff0037;fill-opacity:1.00"/>
<polygon points="1185.94, 120.00  1185.94, 127.84, 1179.28, 127.84,  1179.28, 120.00" style="fill:#ff0037;fill-opacity:1.00"/>
<polygon points="1199.27, 120.00  1199.27, 127.84, 1185.94, 127.84,  1185.94, 120.00" style="fill:#ff0037;fill-opacity:1.00"/>
<polygon points="1212.59, 120.00  1212.59, 127.84, 1199.27, 127.84,  1199.27, 120.00" style="fill:#ff0037;fill-opacity:1.00"/>
<polygon points="1219.25, 120.00  1219.25, 127.84, 1212.59, 127.84,  1212.59, 120.00" style="fill:#ff0037;fill-opacity:1.00"/>
<polygon points="1225.92, 120.00  1225.92, 127.84, 1219.25, 127.84,  1219.25, 120.00" style="fill:#ff0037;fill-opacity:1.00"/>
<polygon points="1239.24, 120.00  1239.24, 127.84, 1225.92, 127.84,  1225.92, 120.00" style="fill:#ff0037;fill-opacity:1.00"/>
<polygon points="1252.57, 120.00  1252.57, 127.84, 1239.24, 127.84,  1239.24, 120.00" style="fill:#ff0037;fill-opacity:1.00"/>
<polygon points="1259.23, 120.00  1259.23, 127.84, 1252.57, 127.84,  1252.57, 120.00" style="fill:#ff0037;fill-opacity:1.00"/>
<polygon points="1265.89, 120.00  1265.89, 127.84, 1259.23, 127.84,  1259.23, 120.00" style="fill:#ff0037;fill-opacity:1.00"/>
<polygon points="1279.22, 120.00  1279.22, 127.84, 1265.89, 127.84,  1265.89, 120.00" style="fill:#ff0037;fill-opacity:1.00"/>
<polygon points="1292.54, 120.00  1292.54, 127.84, 1279.22, 127.84,  1279.22, 120.00" style="fill:#ff0037;fill-opacity:1.00"/>
<polygon points="1299.20, 120.00  1299.20, 127.84, 1292.54, 127.84,  1292.54, 120.00" style="fill:#ff0037;fill-opacity:1.00"/>
<polygon points="1305.87, 120.00  1305.87, 127.84, 1299.20, 127.84,  1299.20, 120.00" style="fill:#ff0037;fill-opacity:1.00"/>
<polygon points="1319.19, 120.00  1319.19, 127.84, 1305.87, 127.84,  1305.87, 120.00" style="fill:#ff0037;fill-opacity:1.00"/>
<polygon points="1332.52, 120.00  1332.52, 127.84, 1319.19, 127.84,  1319.19, 120.00" style="fill:#ff0037;fill-opacity:1.00"/>
<polygon points="1339.18, 120.00  1339.18, 127.84, 1332.52, 127.84,  1332.52, 120.00" style="fill:#ff0037;fill-opacity:1.00"/>
<polygon points="1345.84, 120.00  1345.84, 127.84, 1339.18, 127.84,  1339.18, 120.00" style="fill:#ff0037;fill-opacity:1.00"/>
<polygon points="1359.17, 120.00  1359.17, 127.84, 1345.84, 127.84,  1345.84, 120.00" style="fill:#ff0037;fill-opacity:1.00"/>
<polygon points="1372.49, 120.00  1372.49, 127.84, 1359.17, 127.84,  1359.17, 120.00" style="fill:#ff0037;fill-opacity:1.00"/>
<polygon points="1379.16, 120.00  1379.16, 127.84, 1372.49, 127.84,  1372.49, 120.00" style="fill:#ff0037;fill-opacity:1.00"/>
<polygon points="1385.82, 120.00  1385.82, 127.84, 1379.16, 127.84,  1379.16, 120.00" style="fill:#ff0037;fill-opacity:1.00"/>
<polygon points="1399.14, 120.00  1399.14, 127.84, 1385.82, 127.84,  1385.82, 120.00" style="fill:#ff0037;fill-opacity:1.00"/>
<polygon points="1412.47, 120.00  1412.47, 127.84, 1399.14, 127.84,  1399.14, 120.00" style="fill:#ff0037;fill-opacity:1.00"/>
<polygon points="1419.13, 120.00  1419.13, 127.84, 1412.47, 127.84,  1412.47, 120.00" style="fill:#ff0037;fill-opacity:1.00"/>
<polygon points="1425.79, 120.00  1425.79, 127.84, 1419.13, 127.84,  1419.13, 120.00" style="fill:#ff0037;fill-opacity:1.00"/>
<polygon points="1439.12, 120.00  1439.12, 127.84, 1425.79, 127.84,  1425.79, 120.00" style="fill:#ff0037;fill-opacity:1.00"/>
<polygon points="1452.44, 120.00  1452.44, 127.84, 1439.12, 127.84,  1439.12, 120.00" style="fill:#ff0037;fill-opacity:1.00"/>
<polygon points="1459.11, 120.00  1459.11, 127.84, 1452.44, 127.84,  1452.44, 120.00" style="fill:#ff0037;fill-opacity:1.00"/>
<polygon points="1465.77, 120.00  1465.77, 127.84, 1459.11, 127.84,  1459.11, 120.00" style="fill:#ff0037;fill-opacity:1.00"/>
<polygon points="1479.09, 120.00  1479.09, 127.84, 1465.77, 127.84,  1465.77, 120.00" style="fill:#ff0037;fill-opacity:1.00"/>
<polygon points="1492.42, 120.00  1492.42, 127.84, 1479.09, 127.84,  1479.09, 120.00" style="fill:#ff0037;fill-opacity:1.00"/>
<polygon points="1499.08, 120.00  1499.08, 127.84, 1492.42, 127.84,  1492.42, 120.00" style="fill:#ff0037;fill-opacity:1.00"/>
<polygon points="1505.74, 120.00  1505.74, 127.84, 1499.08, 127.84,  1499.08, 120.00" style="fill:#ff0037;fill-opacity:1.00"/>
<polygon points="1519.07, 120.00  1519.07, 127.84, 1505.74, 127.84,  1505.74, 120.00" style="fill:#ff0037;fill-opacity:1.00"/>
<polygon points="1532.39, 120.00  1532.39, 127.84, 1519.07, 127.84,  1519.07, 120.00" style="fill:#ff0037;fill-opacity:1.00"/>
<polygon points="1539.06, 120.00  1539.06, 127.84, 1532.39, 127.84,  1532.39, 120.00" style="fill:#ff0037;fill-opacity:1.00"/>
<polygon points="1545.72, 120.00  1545.72, 127.84, 1539.06, 127.84,  1539.06, 120.00" style="fill:#ff0037;fill-opacity:1.00"/>
<polygon points="1559.05, 120.00  1559.05, 127.84, 1545.72, 127.84,  1545.72, 120.00" style="fill:#ff0037;fill-opacity:1.00"/>
<polygon points="1572.37, 120.00  1572.37, 127.84, 1559.05, 127.84,  1559.05, 120.00" style="fill:#ff0037;fill-opacity:1.00"/>
<polygon points="1579.03, 120.00  1579.03, 127.84, 1572.37, 127.84,  1572.37, 120.00" style="fill:#ff0037;fill-opacity:1.00"/>
<polygon points="1585.70, 120.00  1585.70, 127.84, 1579.03, 127.84,  1579.03, 120.00" style="fill:#ff0037;fill-opacity:1.00"/>
<polygon points="1599.02, 120.00  1599.02, 127.84, 1585.70, 127.84,  1585.70, 120.00" style="fill:#ff0037;fill-opacity:1.00"/>
<polygon points="1612.35, 120.00  1612.35, 127.84, 1599.02, 127.84,  1599.02, 120.00" style="fill:#ff0037;fill-opacity:1.00"/>
<polygon points="1619.01, 120.00  1619.01, 127.84, 1612.35, 127.84,  1612.35, 120.00" style="fill:#ff0037;fill-opacity:1.00"/>
<polygon points="1625.67, 120.00  1625.67, 127.84, 1619.01, 127.84,  1619.01, 120.00" style="fill:#ff0037;fill-opacity:1.00"/>
<polygon points="1639.00, 120.00  1639.00, 127.84, 1625.67, 127.84,  1625.67, 120.00" style="fill:#ff0037;fill-opacity:1.00"/>
<polygon points="1652.32, 120.00  1652.32, 127.84, 1639.00, 127.84,  1639.00, 120.00" style="fill:#ff0037;fill-opacity:1.00"/>
<polygon points="1658.98, 120.00  1658.98, 127.84, 1652.32, 127.84,  1652.32, 120.00" style="fill:#ff0037;fill-opacity:1.00"/>
<polygon points="1665.65, 120.00  1665.65, 127.84, 1658.98, 127.84,  1658.98, 120.00" style="fill:#ff0037;fill-opacity:1.00"/>
<polygon points="1678.97, 120.00  1678.97, 127.84, 1665.65, 127.84,  1665.65, 120.00" style="fill:#ff0037;fill-opacity:1.00"/>
<polygon points="1692.30, 120.00  1692.30, 127.84, 1678.97, 127.84,  1678.97, 120.00" style="fill:#ff0037;fill-opacity:1.00"/>
<polygon points="1698.96, 120.00  1698.96, 127.84, 1692.30, 127.84,  1692.30, 120.00" style="fill:#ff0037;fill-opacity:1.00"/>
<polygon points="1705.62, 120.00  1705.62, 127.84, 1698.96, 127.84,  1698.96, 120.00" style="fill:#ff0037;fill-opacity:1.00"/>
<polygon points="1718.95, 120.00  1718.95, 127.84, 1705.62, 127.84,  1705.62, 120.00" style="fill:#ff0037;fill-opacity:1.00"/>
<polygon points="1732.27, 120.00  1732.27, 127.84, 1718.95, 127.84,  1718.95, 120.00" style="fill:#ff0037;fill-opacity:1.00"/>
<polygon points="1738.94, 120.00  1738.94, 127.84, 1732.27, 127.84,  1732.27, 120.00" style="fill:#ff0037;fill-opacity:1.00"/>
<polygon points="1745.60, 120.00  1745.60, 127.84, 1738.94, 127.84,  1738.94, 120.00" style="fill:#ff0037;fill-opacity:1.00"/>
<polygon points="1758.92, 120.00  1758.92, 127.84, 1745.60, 127.84,  1745.60, 120.00" style="fill:#ff0037;fill-opacity:1.00"/>
<polygon points="1772.25, 120.00  1772.25, 127.84, 1758.92, 127.84,  1758.92, 120.00" style="fill:#ff0037;fill-opacity:1.00"/>
<polygon points="1778.91, 120.00  1778.91, 127.84, 1772.25, 127.84,  1772.25, 120.00" style="fill:#ff0037;fill-opacity:1.00"/>
<polygon points="1785.57, 120.00  1785.57, 127.84, 1778.91, 127.84,  1778.91, 120.00" style="fill:#ff0037;fill-opacity:1.00"/>
<polygon points="1798.90, 120.00  1798.90, 127.84, 1785.57, 127.84,  1785.57, 120.00" style="fill:#ff0037;fill-opacity:1.00"/>
<polygon points="1812.22, 120.00  1812.22, 127.84, 1798.90, 127.84,  1798.90, 120.00" style="fill:#ff0037;fill-opacity:1.00"/>
<polygon points="1818.89, 120.00  1818.89, 127.84, 1812.22, 127.84,  1812.22, 120.00" style="fill:#ff0037;fill-opacity:1.00"/>
<polygon points="1825.55, 120.00  1825.55, 127.84, 1818.89, 127.84,  1818.89, 120.00" style="fill:#ff0037;fill-opacity:1.00"/>
<polygon points="1838.87, 120.00  1838.87, 127.84, 1825.55, 127.84,  1825.55, 120.00" style="fill:#ff0037;fill-opacity:1.00"/>
<polygon points="1852.20, 120.00  1852.20, 127.84, 1838.87, 127.84,  1838.87, 120.00" style="fill:#ff0037;fill-opacity:1.00"/>
<polygon points="1858.86, 120.00  1858.86, 127.84, 1852.20, 127.84,  1852.20, 120.00" style="fill:#ff0037;fill-opacity:1.00"/>
<polygon points="1865.52, 120.00  1865.52, 127.84, 1858.86, 127.84,  1858.86, 120.00" style="fill:#ff0037;fill-opacity:1.00"/>
<polygon points="1878.85, 120.00  1878.85, 127.84, 1865.52, 127.84,  1865.52, 120.00" style="fill:#ff0037;fill-opacity:1.00"/>
<polygon points="1892.17, 120.00  1892.17, 127.84, 1878.85, 127.84,  1878.85, 120.00" style="fill:#ff0037;fill-opacity:1.00"/>
<polygon points="1898.84, 120.00  1898.84, 127.84, 1892.17, 127.84,  1892.17, 120.00" style="fill:#ff0037;fill-opacity:1.00"/>
<polygon points="1905.50, 120.00  1905.50, 127.84, 1898.84, 127.84,  1898.84, 120.00" style="fill:#ff0037;fill-opacity:1.00"/>
<polygon points="1918.82, 120.00  1918.82, 127.84, 1905.50, 127.84,  1905.50, 120.00" style="fill:#ff0037;fill-opacity:1.00"/>
<polygon points="79.95, 120.00  87.79, 120.00, 87.79, 140.00,  79.95, 140.00" style="fill:#ff0037;fill-opacity:1.00"/>
<polygon points="1918.82, 140.00  1910.98, 140.00, 1910.98, 120.00,  1918.82, 120.00" style="fill:#ff0037;fill-opacity:1.00"/>
<polygon points="79.95, 140.00  87.79, 140.00, 87.79, 160.00,  79.95, 160.00" style="fill:#ff0037;fill-opacity:1.00"/>
<polygon points="1918.82, 160.00  1910.98, 160.00, 1910.98, 140.00,  1918.82, 140.00" style="fill:#ff0037;fill-opacity:1.00"/>
<polygon points="79.95, 160.00  87.79, 160.00, 87.79, 180.00,  79.95, 180.00" style="fill:#ff0037;fill-opacity:1.00"/>
<polygon points="1918.82, 180.00  1910.98, 180.00, 1910.98, 160.00,  1918.82, 160.00" style="fill:#ff0037;fill-opacity:1.00"/>
<polygon points="79.95, 180.00  87.79, 180.00, 87.79, 200.00,  79.95, 200.00" style="fill:#ff0037;fill-opacity:1.00"/>
<polygon points="1918.82, 200.00  1910.98, 200.00, 1910.98, 180.00,  1918.82, 180.00" style="fill:#ff0037;fill-opacity:1.00"/>
<polygon points="79.95, 200.00  87.79, 200.00, 87.79, 220.00,  79.95, 220.00" style="fill:#ff0037;fill-opacity:1.00"/>
<polygon points="1918.82, 220.00  1910.98, 220.00, 1910.98, 200.00,  1918.82, 200.00" style="fill:#ff0037;fill-opacity:1.00"/>
<polygon points="79.95, 220.00  87.79, 220.00, 87.79, 240.00,  79.95, 240.00" style="fill:#ff0037;fill-opacity:1.00"/>
<polygon points="1918.82, 240.00  1910.98, 240.00, 1910.98, 220.00,  1918.82, 220.00" style="fill:#ff0037;fill-opacity:1.00"/>
<polygon points="79.95, 240.00  87.79, 240.00, 87.79, 260.00,  79.95, 260.00" style="fill:#ff0037;fill-opacity:1.00"/>
<polygon points="1918.82, 260.00  1910.98, 260.00, 1910.98, 240.00,  1918.82, 240.00" style="fill:#ff0037;fill-opacity:1.00"/>
<polygon points="79.95, 260.00  87.79, 260.00, 87.79, 280.00,  79.95, 280.00" style="fill:#ff0037;fill-opacity:1.00"/>
<polygon points="1918.82, 280.00  1910.98, 280.00, 1910.98, 260.00,  1918.82, 260.00" style="fill:#ff0037;fill-opacity:1.00"/>
<polygon points="79.95, 280.00  87.79, 280.00, 87.79, 300.00,  79.95, 300.00" style="fill:#ff0037;fill-opacity:1.00"/>
<polygon points="1918.82, 300.00  1910.98, 300.00, 1910.98, 280.00,  1918.82, 280.00" style="fill:#ff0037;fill-opacity:1.00"/>
<polygon points="79.95, 300.00  87.79, 300.00, 87.79, 320.00,  79.95, 320.00" style="fill:#ff0037;fill-opacity:1.00"/>
<polygon points="1918.82, 320.00  1910.98, 320.00, 1910.98, 300.00,  1918.82, 300.00" style="fill:#ff0037;fill-opacity:1.00"/>
<polygon points="79.95, 320.00  87.79, 320.00, 87.79, 340.00,  79.95, 340.00" style="fill:#ff0037;fill-opacity:1.00"/>
<polygon points="1918.82, 340.00  1910.98, 340.00, 1910.98, 320.00,  1918.82, 320.00" style="fill:#ff0037;fill-opacity:1.00"/>
<polygon points="79.95, 340.00  87.79, 340.00, 87.79, 360.00,  79.95, 360.00" style="fill:#ff0037;fill-opacity:1.00"/>
<polygon points="1918.82, 360.00  1910.98, 360.00, 1910.98, 340.00,  1918.82, 340.00" style="fill:#ff0037;fill-opacity:1.00"/>
<polygon points="79.95, 360.00  87.79, 360.00, 87.79, 380.00,  79.95, 380.00" style="fill:#ff0037;fill-opacity:1.00"/>
<polygon points="1918.82, 380.00  1910.98, 380.00, 1910.98, 360.00,  1918.82, 360.00" style="fill:#ff0037;fill-opacity:1.00"/>
<polygon points="79.95, 380.00  87.79, 380.00, 87.79, 400.00,  79.95, 400.00" style="fill:#ff0037;fill-opacity:1.00"/>
<polygon points="1918.82, 400.00  1910.98, 400.00, 1910.98, 380.00,  1918.82, 380.00" style="fill:#ff0037;fill-opacity:1.00"/>
<polygon points="79.95, 400.00  87.79, 400.00, 87.79, 420.00,  79.95, 420.00" style="fill:#ff0037;fill-opacity:1.00"/>
<polygon points="1918.82, 420.00  1910.98, 420.00, 1910.98, 400.00,  1918.82, 400.00" style="fill:#ff0037;fill-opacity:1.00"/>
<polygon points="79.95, 420.00  87.79, 420.00, 87.79, 440.00,  79.95, 440.00" style="fill:#ff0037;fill-opacity:1.00"/>
<polygon points="1918.82, 440.00  1910.98, 440.00, 1910.98, 420.00,  1918.82, 420.00" style="fill:#ff0037;fill-opacity:1.00"/>
<polygon points="79.95, 440.00  87.79, 440.00, 87.79, 460.00,  79.95, 460.00" style="fill:#ff0037;fill-opacity:1.00"/>
<polygon points="1918.82, 460.00  1910.98, 460.00, 1910.98, 440.00,  1918.82, 440.00" style="fill:#ff0037;fill-opacity:1.00"/>
<polygon points="79.95, 460.00  87.79, 460.00, 87.79, 480.00,  79.95, 480.00" style="fill:#ff0037;fill-opacity:1.00"/>
<polygon points="1918.82, 480.00  1910.98, 480.00, 1910.98, 460.00,  1918.82, 460.00" style="fill:#ff0037;fill-opacity:1.00"/>
<polygon points="79.95, 480.00  87.79, 480.00, 87.79, 500.00,  79.95, 500.00" style="fill:#ff0037;fill-opacity:1.00"/>
<polygon points="1918.82, 500.00  1910.98, 500.00, 1910.98, 480.00,  1918.82, 480.00" style="fill:#ff0037;fill-opacity:1.00"/>
<polygon points="79.95, 500.00  87.79, 500.00, 87.79, 520.00,  79.95, 520.00" style="fill:#ff0037;fill-opacity:1.00"/>
<polygon points="1918.82, 520.00  1910.98, 520.00, 1910.98, 500.00,  1918.82, 500.00" style="fill:#ff0037;fill-opacity:1.00"/>
<polygon points="79.95, 520.00  87.79, 520.00, 87.79, 540.00,  79.95, 540.00" style="fill:#ff0037;fill-opacity:1.00"/>
<polygon points="1918.82, 540.00  1910.98, 540.00, 1910.98, 520.00,  1918.82, 520.00" style="fill:#ff0037;fill-opacity:1.00"/>
<polygon points="79.95, 540.00  87.79, 540.00, 87.79, 560.00,  79.95, 560.00" style="fill:#ff0037;fill-opacity:1.00"/>
<polygon points="1918.82, 560.00  1910.98, 560.00, 1910.98, 540.00,  1918.82, 540.00" style="fill:#ff0037;fill-opacity:1.00"/>
<polygon points="79.95, 560.00  87.79, 560.00, 87.79, 580.00,  79.95, 580.00" style="fill:#ff0037;fill-opacity:1.00"/>
<polygon points="1918.82, 580.00  1910.98, 580.00, 1910.98, 560.00,  1918.82, 560.00" style="fill:#ff0037;fill-opacity:1.00"/>
<polygon points="79.95, 580.00  87.79, 580.00, 87.79, 600.00,  79.95, 600.00" style="fill:#ff0037;fill-opacity:1.00"/>
<polygon points="1918.82, 600.00  1910.98, 600.00, 1910.98, 580.00,  1918.82, 580.00" style="fill:#ff0037;fill-opacity:1.00"/>
<polygon points="79.95, 600.00  87.79, 600.00, 87.79, 620.00,  79.95, 620.00" style="fill:#ff0037;fill-opacity:1.00"/>
<polygon points="1918.82, 620.00  1910.98, 620.00, 1910.98, 600.00,  1918.82, 600.00" style="fill:#ff0037;fill-opacity:1.00"/>
<polygon points="79.95, 620.00  87.79, 620.00, 87.79, 640.00,  79.95, 640.00" style="fill:#ff0037;fill-opacity:1.00"/>
<polygon points="1918.82, 640.00  1910.98, 640.00, 1910.98, 620.00,  1918.82, 620.00" style="fill:#ff0037;fill-opacity:1.00"/>
<polygon points="79.95, 640.00  87.79, 640.00, 87.79, 660.00,  79.95, 660.00" style="fill:#ff0037;fill-opacity:1.00"/>
<polygon points="1918.82, 660.00  1910.98, 660.00, 1910.98, 640.00,  1918.82, 640.00" style="fill:#ff0037;fill-opacity:1.00"/>
<polygon points="79.95, 660.00  87.79, 660.00, 87.79, 680.00,  79.95, 680.00" style="fill:#ff0037;fill-opacity:1.00"/>
<polygon points="1918.82, 680.00  1910.98, 680.00, 1910.98, 660.00,  1918.82, 660.00" style="fill:#ff0037;fill-opacity:1.00"/>
<polygon points="79.95, 680.00  87.79, 680.00, 87.79, 700.00,  79.95, 700.00" style="fill:#ff0037;fill-opacity:1.00"/>
<polygon points="1918.82, 700.00  1910.98, 700.00, 1910.98, 680.00,  1918.82, 680.00" style="fill:#ff0037;fill-opacity:1.00"/>
<polygon points="79.95, 700.00  87.79, 700.00, 87.79, 720.00,  79.95, 720.00" style="fill:#ff0037;fill-opacity:1.00"/>
<polygon points="1918.82, 720.00  1910.98, 720.00, 1910.98, 700.00,  1918.82, 700.00" style="fill:#ff0037;fill-opacity:1.00"/>
<polygon points="79.95, 720.00  87.79, 720.00, 87.79, 740.00,  79.95, 740.00" style="fill:#ff0037;fill-opacity:1.00"/>
<polygon points="1918.82, 740.00  1910.98, 740.00, 1910.98, 720.00,  1918.82, 720.00" style="fill:#ff0037;fill-opacity:1.00"/>
<polygon points="79.95, 740.00  87.79, 740.00, 87.79, 760.00,  79.95, 760.00" style="fill:#ff0037;fill-opacity:1.00"/>
<polygon points="1918.82, 760.00  1910.98, 760.00, 1910.98, 740.00,  1918.82, 740.00" style="fill:#ff0037;fill-opacity:1.00"/>
<polygon points="79.95, 760.00  87.79, 760.00, 87.79, 780.00,  79.95, 780.00" style="fill:#ff0037;fill-opacity:1.00"/>
<polygon points="1918.82, 780.00  1910.98, 780.00, 1910.98, 760.00,  1918.82, 760.00" style="fill:#ff0037;fill-opacity:1.00"/>
<polygon points="79.95, 780.00  87.79, 780.00, 87.79, 800.00,  79.95, 800.00" style="fill:#ff0037;fill-opacity:1.00"/>
<polygon points="1918.82, 800.00  1910.98, 800.00, 1910.98, 780.00,  1918.82, 780.00" style="fill:#ff0037;fill-opacity:1.00"/>
<polygon points="79.95, 800.00  87.79, 800.00, 87.79, 820.00,  79.95, 820.00" style="fill:#ff0037;fill-opacity:1.00"/>
<polygon points="1918.82, 820.00  1910.98, 820.00, 1910.98, 800.00,  1918.82, 800.00" style="fill:#ff0037;fill-opacity:1.00"/>
<polygon points="79.95, 820.00  87.79, 820.00, 87.79, 840.00,  79.95, 840.00" style="fill:#ff0037;fill-opacity:1.00"/>
<polygon points="1918.82, 840.00  1910.98, 840.00, 1910.98, 820.00,  1918.82, 820.00" style="fill:#ff0037;fill-opacity:1.00"/>
<polygon points="79.95, 840.00  87.79, 840.00, 87.79, 860.00,  79.95, 860.00" style="fill:#ff0037;fill-opacity:1.00"/>
<polygon points="1918.82, 860.00  1910.98, 860.00, 1910.98, 840.00,  1918.82, 840.00" style="fill:#ff0037;fill-opacity:1.00"/>
<polygon points="79.95, 860.00  87.79, 860.00, 87.79, 880.00,  79.95, 880.00" style="fill:#ff0037;fill-opacity:1.00"/>
<polygon points="1918.82, 880.00  1910.98, 880.00, 1910.98, 860.00,  1918.82, 860.00" style="fill:#ff0037;fill-opacity:1.00"/>
<polygon points="79.95, 880.00  87.79, 880.00, 87.79, 900.00,  79.95, 900.00" style="fill:#ff0037;fill-opacity:1.00"/>
<polygon points="1918.82, 900.00  1910.98, 900.00, 1910.98, 880.00,  1918.82, 880.00" style="fill:#ff0037;fill-opacity:1.00"/>
<polygon points="79.95, 900.00  87.79, 900.00, 87.79, 920.00,  79.95, 920.00" style="fill:#ff0037;fill-opacity:1.00"/>
<polygon points="1918.82, 920.00  1910.98, 920.00, 1910.98, 900.00,  1918.82, 900.00" style="fill:#ff0037;fill-opacity:1.00"/>
<polygon points="79.95, 920.00  87.79, 920.00, 87.79, 940.00,  79.95, 940.00" style="fill:#ff0037;fill-opacity:1.00"/>
<polygon points="1918.82, 940.00  1910.98, 940.00, 1910.98, 920.00,  1918.82, 920.00" style="fill:#ff0037;fill-opacity:1.00"/>
<polygon points="79.95, 940.00  87.79, 940.00, 87.79, 960.00,  79.95, 960.00" style="fill:#ff0037;fill-opacity:1.00"/>
<polygon points="1918.82, 960.00  1910.98, 960.00, 1910.98, 940.00,  1918.82, 940.00" style="fill:#ff0037;fill-opacity:1.00"/>
<polygon points="79.95, 960.00  87.79, 960.00, 87.79, 980.00,  79.95, 980.00" style="fill:#ff0037;fill-opacity:1.00"/>
<polygon points="1918.82, 980.00  1910.98, 980.00, 1910.98, 960.00,  1918.82, 960.00" style="fill:#ff0037;fill-opacity:1.00"/>
<polygon points="79.95, 980.00  87.79, 980.00, 87.79, 1000.00,  79.95, 1000.00" style="fill:#ff0037;fill-opacity:1.00"/>
<polygon points="1918.82, 1000.00  1910.98, 1000.00, 1910.98, 980.00,  1918.82, 980.00" style="fill:#ff0037;fill-opacity:1.00"/>
<polygon points="79.95, 1000.00  87.79, 1000.00, 87.79, 1020.00,  79.95, 1020.00" style="fill:#ff0037;fill-opacity:1.00"/>
<polygon points="1918.82, 1020.00  1910.98, 1020.00, 1910.98, 1000.00,  1918.82, 1000.00" style="fill:#ff0037;fill-opacity:1.00"/>
<polygon points="79.95, 1020.00  87.79, 1020.00, 87.79, 1040.00,  79.95, 1040.00" style="fill:#ff0037;fill-opacity:1.00"/>
<polygon points="1918.82, 1040.00  1910.98, 1040.00, 1910.98, 1020.00,  1918.82, 1020.00" style="fill:#ff0037;fill-opacity:1.00"/>
<polygon points="79.95, 1040.00  87.79, 1040.00, 87.79, 1060.00,  79.95, 1060.00" style="fill:#ff0037;fill-opacity:1.00"/>
<polygon points="1918.82, 1060.00  1910.98, 1060.00, 1910.98, 1040.00,  1918.82, 1040.00" style="fill:#ff0037;fill-opacity:1.00"/>
<polygon points="79.95, 1060.00  87.79, 1060.00, 87.79, 1080.00,  79.95, 1080.00" style="fill:#ff0037;fill-opacity:1.00"/>
<polygon points="1918.82, 1080.00  1910.98, 1080.00, 1910.98, 1060.00,  1918.82, 1060.00" style="fill:#ff0037;fill-opacity:1.00"/>
<polygon points="79.95, 1080.00  87.79, 1080.00, 87.79, 1100.00,  79.95, 1100.00" style="fill:#ff0037;fill-opacity:1.00"/>
<polygon points="1918.82, 1100.00  1910.98, 1100.00, 1910.98, 1080.00,  1918.82, 1080.00" style="fill:#ff0037;fill-opacity:1.00"/>
<polygon points="79.95, 1100.00  87.79, 1100.00, 87.79, 1120.00,  79.95, 1120.00" style="fill:#ff0037;fill-opacity:1.00"/>
<polygon points="1918.82, 1120.00  1910.98, 1120.00, 1910.98, 1100.00,  1918.82, 1100.00" style="fill:#ff0037;fill-opacity:1.00"/>
<polygon points="79.95, 1120.00  87.79, 1120.00, 87.79, 1140.00,  79.95, 1140.00" style="fill:#ff0037;fill-opacity:1.00"/>
<polygon points="1918.82, 1140.00  1910.98, 1140.00, 1910.98, 1120.00,  1918.82, 1120.00" style="fill:#ff0037;fill-opacity:1.00"/>
<polygon points="79.95, 1140.00  87.79, 1140.00, 87.79, 1160.00,  79.95, 1160.00" style="fill:#ff0037;fill-opacity:1.00"/>
<polygon points="1918.82, 1160.00  1910.98, 1160.00, 1910.98, 1140.00,  1918.82, 1140.00" style="fill:#ff0037;fill-opacity:1.00"/>
<polygon points="79.95, 1160.00  87.79, 1160.00, 87.79, 1180.00,  79.95, 1180.00" style="fill:#ff0037;fill-opacity:1.00"/>
<polygon points="1918.82, 1180.00  1910.98, 1180.00, 1910.98, 1160.00,  1918.82, 1160.00" style="fill:#ff0037;fill-opacity:1.00"/>
<polygon points="79.95, 1180.00  87.79, 1180.00, 87.79, 1200.00,  79.95, 1200.00" style="fill:#ff0037;fill-opacity:1.00"/>
<polygon points="1918.82, 1200.00  1910.98, 1200.00, 1910.98, 1180.00,  1918.82, 1180.00" style="fill:#ff0037;fill-opacity:1.00"/>
<polygon points="79.95, 1200.00  87.79, 1200.00, 87.79, 1220.00,  79.95, 1220.00" style="fill:#ff0037;fill-opacity:1.00"/>
<polygon points="1918.82, 1220.00  1910.98, 1220.00, 1910.98, 1200.00,  1918.82, 1200.00" style="fill:#ff0037;fill-opacity:1.00"/>
<polygon points="79.95, 1220.00  87.79, 1220.00, 87.79, 1240.00,  79.95, 1240.00" style="fill:#ff0037;fill-opacity:1.00"/>
<polygon points="1918.82, 1240.00  1910.98, 1240.00, 1910.98, 1220.00,  1918.82, 1220.00" style="fill:#ff0037;fill-opacity:1.00"/>
<polygon points="79.95, 1240.00  87.79, 1240.00, 87.79, 1260.00,  79.95, 1260.00" style="fill:#ff0037;fill-opacity:1.00"/>
<polygon points="1918.82, 1260.00  1910.98, 1260.00, 1910.98, 1240.00,  1918.82, 1240.00" style="fill:#ff0037;fill-opacity:1.00"/>
<polygon points="79.95, 1260.00  87.79, 1260.00, 87.79, 1280.00,  79.95, 1280.00" style="fill:#ff0037;fill-opacity:1.00"/>
<polygon points="1918.82, 1280.00  1910.98, 1280.00, 1910.98, 1260.00,  1918.82, 1260.00" style="fill:#ff0037;fill-opacity:1.00"/>
<polygon points="79.95, 1280.00  87.79, 1280.00, 87.79, 1300.00,  79.95, 1300.00" style="fill:#ff0037;fill-opacity:1.00"/>
<polygon points="1918.82, 1300.00  1910.98, 1300.00, 1910.98, 1280.00,  1918.82, 1280.00" style="fill:#ff0037;fill-opacity:1.00"/>
<polygon points="79.95, 1300.00  87.79, 1300.00, 87.79, 1320.00,  79.95, 1320.00" style="fill:#ff0037;fill-opacity:1.00"/>
<polygon points="1918.82, 1320.00  1910.98, 1320.00, 1910.98, 1300.00,  1918.82, 1300.00" style="fill:#ff0037;fill-opacity:1.00"/>
<polygon points="79.95, 1320.00  87.79, 1320.00, 87.79, 1340.00,  79.95, 1340.00" style="fill:#ff0037;fill-opacity:1.00"/>
<polygon points="1918.82, 1340.00  1910.98, 1340.00, 1910.98, 1320.00,  1918.82, 1320.00" style="fill:#ff0037;fill-opacity:1.00"/>
<polygon points="79.95, 1340.00  87.79, 1340.00, 87.79, 1360.00,  79.95, 1360.00" style="fill:#ff0037;fill-opacity:1.00"/>
<polygon points="1918.82, 1360.00  1910.98, 1360.00, 1910.98, 1340.00,  1918.82, 1340.00" style="fill:#ff0037;fill-opacity:1.00"/>
<polygon points="79.95, 1360.00  87.79, 1360.00, 87.79, 1380.00,  79.95, 1380.00" style="fill:#ff0037;fill-opacity:1.00"/>
<polygon points="1918.82, 1380.00  1910.98, 1380.00, 1910.98, 1360.00,  1918.82, 1360.00" style="fill:#ff0037;fill-opacity:1.00"/>
<polygon points="79.95, 1380.00  87.79, 1380.00, 87.79, 1400.00,  79.95, 1400.00" style="fill:#ff0037;fill-opacity:1.00"/>
<polygon points="1918.82, 1400.00  1910.98, 1400.00, 1910.98, 1380.00,  1918.82, 1380.00" style="fill:#ff0037;fill-opacity:1.00"/>
<polygon points="79.95, 1400.00  87.79, 1400.00, 87.79, 1420.00,  79.95, 1420.00" style="fill:#ff0037;fill-opacity:1.00"/>
<polygon points="1918.82, 1420.00  1910.98, 1420.00, 1910.98, 1400.00,  1918.82, 1400.00" style="fill:#ff0037;fill-opacity:1.00"/>
<polygon points="79.95, 1420.00  87.79, 1420.00, 87.79, 1440.00,  79.95, 1440.00" style="fill:#ff0037;fill-opacity:1.00"/>
<polygon points="1918.82, 1440.00  1910.98, 1440.00, 1910.98, 1420.00,  1918.82, 1420.00" style="fill:#ff0037;fill-opacity:1.00"/>
<polygon points="79.95, 1440.00  87.79, 1440.00, 87.79, 1460.00,  79.95, 1460.00" style="fill:#ff0037;fill-opacity:1.00"/>
<polygon points="1918.82, 1460.00  1910.98, 1460.00, 1910.98, 1440.00,  1918.82, 1440.00" style="fill:#ff0037;fill-opacity:1.00"/>
<polygon points="79.95, 1460.00  87.79, 1460.00, 87.79, 1480.00,  79.95, 1480.00" style="fill:#ff0037;fill-opacity:1.00"/>
<polygon points="1918.82, 1480.00  1910.98, 1480.00, 1910.98, 1460.00,  1918.82, 1460.00" style="fill:#ff0037;fill-opacity:1.00"/>
<polygon points="79.95, 1480.00  87.79, 1480.00, 87.79, 1500.00,  79.95, 1500.00" style="fill:#ff0037;fill-opacity:1.00"/>
<polygon points="1918.82, 1500.00  1910.98, 1500.00, 1910.98, 1480.00,  1918.82, 1480.00" style="fill:#ff0037;fill-opacity:1.00"/>
<polygon points="79.95, 1500.00  87.79, 1500.00, 87.79, 1520.00,  79.95, 1520.00" style="fill:#ff0037;fill-opacity:1.00"/>
<polygon points="1918.82, 1520.00  1910.98, 1520.00, 1910.98, 1500.00,  1918.82, 1500.00" style="fill:#ff0037;fill-opacity:1.00"/>
<polygon points="79.95, 1520.00  87.79, 1520.00, 87.79, 1540.00,  79.95, 1540.00" style="fill:#ff0037;fill-opacity:1.00"/>
<polygon points="1918.82, 1540.00  1910.98, 1540.00, 1910.98, 1520.00,  1918.82, 1520.00" style="fill:#ff0037;fill-opacity:1.00"/>
<polygon points="79.95, 1540.00  87.79, 1540.00, 87.79, 1560.00,  79.95, 1560.00" style="fill:#ff0037;fill-opacity:1.00"/>
<polygon points="1918.82, 1560.00  1910.98, 1560.00, 1910.98, 1540.00,  1918.82, 1540.00" style="fill:#ff0037;fill-opacity:1.00"/>
<polygon points="79.95, 1560.00  87.79, 1560.00, 87.79, 1580.00,  79.95, 1580.00" style="fill:#ff0037;fill-opacity:1.00"/>
<polygon points="1918.82, 1580.00  1910.98, 1580.00, 1910.98, 1560.00,  1918.82, 1560.00" style="fill:#ff0037;fill-opacity:1.00"/>
<polygon points="79.95, 1580.00  87.79, 1580.00, 87.79, 1600.00,  79.95, 1600.00" style="fill:#ff0037;fill-opacity:1.00"/>
<polygon points="1918.82, 1600.00  1910.98, 1600.00, 1910.98, 1580.00,  1918.82, 1580.00" style="fill:#ff0037;fill-opacity:1.00"/>
<polygon points="79.95, 1600.00  87.79, 1600.00, 87.79, 1620.00,  79.95, 1620.00" style="fill:#ff0037;fill-opacity:1.00"/>
<polygon points="1918.82, 1620.00  1910.98, 1620.00, 1910.98, 1600.00,  1918.82, 1600.00" style="fill:#ff0037;fill-opacity:1.00"/>
<polygon points="79.95, 1620.00  87.79, 1620.00, 87.79, 1640.00,  79.95, 1640.00" style="fill:#ff0037;fill-opacity:1.00"/>
<polygon points="1918.82, 1640.00  1910.98, 1640.00, 1910.98, 1620.00,  1918.82, 1620.00" style="fill:#ff0037;fill-opacity:1.00"/>
<polygon points="79.95, 1640.00  87.79, 1640.00, 87.79, 1660.00,  79.95, 1660.00" style="fill:#ff0037;fill-opacity:1.00"/>
<polygon points="1918.82, 1660.00  1910.98, 1660.00, 1910.98, 1640.00,  1918.82, 1640.00" style="fill:#ff0037;fill-opacity:1.00"/>
<polygon points="79.95, 1660.00  87.79, 1660.00, 87.79, 1680.00,  79.95, 1680.00" style="fill:#ff0037;fill-opacity:1.00"/>
<polygon points="1918.82, 1680.00  1910.98, 1680.00, 1910.98, 1660.00,  1918.82, 1660.00" style="fill:#ff0037;fill-opacity:1.00"/>
<polygon points="79.95, 1680.00  87.79, 1680.00, 87.79, 1700.00,  79.95, 1700.00" style="fill:#ff0037;fill-opacity:1.00"/>
<polygon points="1918.82, 1700.00  1910.98, 1700.00, 1910.98, 1680.00,  1918.82, 1680.00" style="fill:#ff0037;fill-opacity:1.00"/>
<polygon points="79.95, 1700.00  87.79, 1700.00, 87.79, 1720.00,  79.95, 1720.00" style="fill:#ff0037;fill-opacity:1.00"/>
<polygon points="1918.82, 1720.00  1910.98, 1720.00, 1910.98, 1700.00,  1918.82, 1700.00" style="fill:#ff0037;fill-opacity:1.00"/>
<polygon points="79.95, 1720.00  87.79, 1720.00, 87.79, 1740.00,  79.95, 1740.00" style="fill:#ff0037;fill-opacity:1.00"/>
<polygon points="1918.82, 1740.00  1910.98, 1740.00, 1910.98, 1720.00,  1918.82, 1720.00" style="fill:#ff0037;fill-opacity:1.00"/>
<polygon points="79.95, 1740.00  87.79, 1740.00, 87.79, 1760.00,  79.95, 1760.00" style="fill:#ff0037;fill-opacity:1.00"/>
<polygon points="1918.82, 1760.00  1910.98, 1760.00, 1910.98, 1740.00,  1918.82, 1740.00" style="fill:#ff0037;fill-opacity:1.00"/>
<polygon points="79.95, 1760.00  87.79, 1760.00, 87.79, 1780.00,  79.95, 1780.00" style="fill:#ff0037;fill-opacity:1.00"/>
<polygon points="1918.82, 1780.00  1910.98, 1780.00, 1910.98, 1760.00,  1918.82, 1760.00" style="fill:#ff0037;fill-opacity:1.00"/>
<polygon points="79.95, 1780.00  87.79, 1780.00, 87.79, 1800.00,  79.95, 1800.00" style="fill:#ff0037;fill-opacity:1.00"/>
<polygon points="1918.82, 1800.00  1910.98, 1800.00, 1910.98, 1780.00,  1918.82, 1780.00" style="fill:#ff0037;fill-opacity:1.00"/>
<polygon points="79.95, 1800.00  87.79, 1800.00, 87.79, 1820.00,  79.95, 1820.00" style="fill:#ff0037;fill-opacity:1.00"/>
<polygon points="1918.82, 1820.00  1910.98, 1820.00, 1910.98, 1800.00,  1918.82, 1800.00" style="fill:#ff0037;fill-opacity:1.00"/>
<polygon points="79.95, 1820.00  87.79, 1820.00, 87.79, 1840.00,  79.95, 1840.00" style="fill:#ff0037;fill-opacity:1.00"/>
<polygon points="1918.82, 1840.00  1910.98, 1840.00, 1910.98, 1820.00,  1918.82, 1820.00" style="fill:#ff0037;fill-opacity:1.00"/>
<polygon points="79.95, 1840.00  87.79, 1840.00, 87.79, 1860.00,  79.95, 1860.00" style="fill:#ff0037;fill-opacity:1.00"/>
<polygon points="1918.82, 1860.00  1910.98, 1860.00, 1910.98, 1840.00,  1918.82, 1840.00" style="fill:#ff0037;fill-opacity:1.00"/>
<polygon points="79.95, 1860.00  87.79, 1860.00, 87.79, 1880.00,  79.95, 1880.00" style="fill:#ff0037;fill-opacity:1.00"/>
<polygon points="1918.82, 1880.00  1910.98, 1880.00, 1910.98, 1860.00,  1918.82, 1860.00" style="fill:#ff0037;fill-opacity:1.00"/>
<polygon points="79.95, 1880.00  79.95, 1872.16, 93.28, 1872.16,  93.28, 1880.00" style="fill:#ff0037;fill-opacity:1.00"/>
<polygon points="93.28, 1880.00  93.28, 1872.16, 99.94, 1872.16,  99.94, 1880.00" style="fill:#ff0037;fill-opacity:1.00"/>
<polygon points="99.94, 1880.00  99.94, 1872.16, 106.60, 1872.16,  106.60, 1880.00" style="fill:#ff0037;fill-opacity:1.00"/>
<polygon points="106.60, 1880.00  106.60, 1872.16, 119.93, 1872.16,  119.93, 1880.00" style="fill:#ff0037;fill-opacity:1.00"/>
<polygon points="119.93, 1880.00  119.93, 1872.16, 133.25, 1872.16,  133.25, 1880.00" style="fill:#ff0037;fill-opacity:1.00"/>
<polygon points="133.25, 1880.00  133.25, 1872.16, 139.91, 1872.16,  139.91, 1880.00" style="fill:#ff0037;fill-opacity:1.00"/>
<polygon points="139.91, 1880.00  139.91, 1872.16, 146.58, 1872.16,  146.58, 1880.00" style="fill:#ff0037;fill-opacity:1.00"/>
<polygon points="146.58, 1880.00  146.58, 1872.16, 159.90, 1872.16,  159.90, 1880.00" style="fill:#ff0037;fill-opacity:1.00"/>
<polygon points="159.90, 1880.00  159.90, 1872.16, 173.23, 1872.16,  173.23, 1880.00" style="fill:#ff0037;fill-opacity:1.00"/>
<polygon points="173.23, 1880.00  173.23, 1872.16, 179.89, 1872.16,  179.89, 1880.00" style="fill:#ff0037;fill-opacity:1.00"/>
<polygon points="179.89, 1880.00  179.89, 1872.16, 186.55, 1872.16,  186.55, 1880.00" style="fill:#ff0037;fill-opacity:1.00"/>
<polygon points="186.55, 1880.00  186.55, 1872.16, 199.88, 1872.16,  199.88, 1880.00" style="fill:#ff0037;fill-opacity:1.00"/>
<polygon points="199.88, 1880.00  199.88, 1872.16, 213.20, 1872.16,  213.20, 1880.00" style="fill:#ff0037;fill-opacity:1.00"/>
<polygon points="213.20, 1880.00  213.20, 1872.16, 219.87, 1872.16,  219.87, 1880.00" style="fill:#ff0037;fill-opacity:1.00"/>
<polygon points="219.87, 1880.00  219.87, 1872.16, 226.53, 1872.16,  226.53, 1880.00" style="fill:#ff0037;fill-opacity:1.00"/>
<polygon points="226.53, 1880.00  226.53, 1872.16, 239.85, 1872.16,  239.85, 1880.00" style="fill:#ff0037;fill-opacity:1.00"/>
<polygon points="239.85, 1880.00  239.85, 1872.16, 253.18, 1872.16,  253.18, 1880.00" style="fill:#ff0037;fill-opacity:1.00"/>
<polygon points="253.18, 1880.00  253.18, 1872.16, 259.84, 1872.16,  259.84, 1880.00" style="fill:#ff0037;fill-opacity:1.00"/>
<polygon points="259.84, 1880.00  259.84, 1872.16, 266.50, 1872.16,  266.50, 1880.00" style="fill:#ff0037;fill-opacity:1.00"/>
<polygon points="266.50, 1880.00  266.50, 1872.16, 279.83, 1872.16,  279.83, 1880.00" style="fill:#ff0037;fill-opacity:1.00"/>
<polygon points="279.83, 1880.00  279.83, 1872.16, 293.15, 1872.16,  293.15, 1880.00" style="fill:#ff0037;fill-opacity:1.00"/>
<polygon points="293.15, 1880.00  293.15, 1872.16, 299.82, 1872.16,  299.82, 1880.00" style="fill:#ff0037;fill-opacity:1.00"/>
<polygon points="299.82, 1880.00  299.82, 1872.16, 306.48, 1872.16,  306.48, 1880.00" style="fill:#ff0037;fill-opacity:1.00"/>
<polygon points="306.48, 1880.00  306.48, 1872.16, 319.80, 1872.16,  319.80, 1880.00" style="fill:#ff0037;fill-opacity:1.00"/>
<polygon points="319.80, 1880.00  319.80, 1872.16, 333.13, 1872.16,  333.13, 1880.00" style="fill:#ff0037;fill-opacity:1.00"/>
<polygon points="333.13, 1880.00  333.13, 1872.16, 339.79, 1872.16,  339.79, 1880.00" style="fill:#ff0037;fill-opacity:1.00"/>
<polygon points="339.79, 1880.00  339.79, 1872.16, 346.45, 1872.16,  346.45, 1880.00" style="fill:#ff0037;fill-opacity:1.00"/>
<polygon points="346.45, 1880.00  346.45, 1872.16, 359.78, 1872.16,  359.78, 1880.00" style="fill:#ff0037;fill-opacity:1.00"/>
<polygon points="359.78, 1880.00  359.78, 1872.16, 373.10, 1872.16,  373.10, 1880.00" style="fill:#ff0037;fill-opacity:1.00"/>
<polygon points="373.10, 1880.00  373.10, 1872.16, 379.77, 1872.16,  379.77, 1880.00" style="fill:#ff0037;fill-opacity:1.00"/>
<polygon points="379.77, 1880.00  379.77, 1872.16, 386.43, 1872.16,  386.43, 1880.00" style="fill:#ff0037;fill-opacity:1.00"/>
<polygon points="386.43, 1880.00  386.43, 1872.16, 399.76, 1872.16,  399.76, 1880.00" style="fill:#ff0037;fill-opacity:1.00"/>
<polygon points="399.76, 1880.00  399.76, 1872.16, 413.08, 1872.16,  413.08, 1880.00" style="fill:#ff0037;fill-opacity:1.00"/>
<polygon points="413.08, 1880.00  413.08, 1872.16, 419.74, 1872.16,  419.74, 1880.00" style="fill:#ff0037;fill-opacity:1.00"/>
<polygon points="419.74, 1880.00  419.74, 1872.16, 426.41, 1872.16,  426.41, 1880.00" style="fill:#ff0037;fill-opacity:1.00"/>
<polygon points="426.41, 1880.00  426.41, 1872.16, 439.73, 1872.16,  439.73, 1880.00" style="fill:#ff0037;fill-opacity:1.00"/>
<polygon points="439.73, 1880.00  439.73, 1872.16, 453.06, 1872.16,  453.06, 1880.00" style="fill:#ff0037;fill-opacity:1.00"/>
<polygon points="453.06, 1880.00  453.06, 1872.16, 459.72, 1872.16,  459.72, 1880.00" style="fill:#ff0037;fill-opacity:1.00"/>
<polygon points="459.72, 1880.00  459.72, 1872.16, 466.38, 1872.16,  466.38, 1880.00" style="fill:#ff0037;fill-opacity:1.00"/>
<polygon points="466.38, 1880.00  466.38, 1872.16, 479.71, 1872.16,  479.71, 1880.00" style="fill:#ff0037;fill-opacity:1.00"/>
<polygon points="479.71, 1880.00  479.71, 1872.16, 493.03, 1872.16,  493.03, 1880.00" style="fill:#ff0037;fill-opacity:1.00"/>
<polygon points="493.03, 1880.00  493.03, 1872.16, 499.69, 1872.16,  499.69, 1880.00" style="fill:#ff0037;fill-opacity:1.00"/>
<polygon points="499.69, 1880.00  499.69, 1872.16, 506.36, 1872.16,  506.36, 1880.00" style="fill:#ff0037;fill-opacity:1.00"/>
<polygon points="506.36, 1880.00  506.36, 1872.16, 519.68, 1872.16,  519.68, 1880.00" style="fill:#ff0037;fill-opacity:1.00"/>
<polygon points="519.68, 1880.00  519.68, 1872.16, 533.01, 1872.16,  533.01, 1880.00" style="fill:#ff0037;fill-opacity:1.00"/>
<polygon points="533.01, 1880.00  533.01, 1872.16, 539.67, 1872.16,  539.67, 1880.00" style="fill:#ff0037;fill-opacity:1.00"/>
<polygon points="539.67, 1880.00  539.67, 1872.16, 546.33, 1872.16,  546.33, 1880.00" style="fill:#ff0037;fill-opacity:1.00"/>
<polygon points="546.33, 1880.00  546.33, 1872.16, 559.66, 1872.16,  559.66, 1880.00" style="fill:#ff0037;fill-opacity:1.00"/>
<polygon points="559.66, 1880.00  559.66, 1872.16, 572.98, 1872.16,  572.98, 1880.00" style="fill:#ff0037;fill-opacity:1.00"/>
<polygon points="572.98, 1880.00  572.98, 1872.16, 579.65, 1872.16,  579.65, 1880.00" style="fill:#ff0037;fill-opacity:1.00"/>
<polygon points="579.65, 1880.00  579.65, 1872.16, 586.31, 1872.16,  586.31, 1880.00" style="fill:#ff0037;fill-opacity:1.00"/>
<polygon points="586.31, 1880.00  586.31, 1872.16, 599.63, 1872.16,  599.63, 1880.00" style="fill:#ff0037;fill-opacity:1.00"/>
<polygon points="599.63, 1880.00  599.63, 1872.16, 612.96, 1872.16,  612.96, 1880.00" style="fill:#ff0037;fill-opacity:1.00"/>
<polygon points="612.96, 1880.00  612.96, 1872.16, 619.62, 1872.16,  619.62, 1880.00" style="fill:#ff0037;fill-opacity:1.00"/>
<polygon points="619.62, 1880.00  619.62, 1872.16, 626.28, 1872.16,  626.28, 1880.00" style="fill:#ff0037;fill-opacity:1.00"/>
<polygon points="626.28, 1880.00  626.28, 1872.16, 639.61, 1872.16,  639.61, 1880.00" style="fill:#ff0037;fill-opacity:1.00"/>
<polygon points="639.61, 1880.00  639.61, 1872.16, 652.93, 1872.16,  652.93, 1880.00" style="fill:#ff0037;fill-opacity:1.00"/>
<polygon points="652.93, 1880.00  652.93, 1872.16, 659.60, 1872.16,  659.60, 1880.00" style="fill:#ff0037;fill-opacity:1.00"/>
<polygon points="659.60, 1880.00  659.60, 1872.16, 666.26, 1872.16,  666.26, 1880.00" style="fill:#ff0037;fill-opacity:1.00"/>
<polygon points="666.26, 1880.00  666.26, 1872.16, 679.58, 1872.16,  679.58, 1880.00" style="fill:#ff0037;fill-opacity:1.00"/>
<polygon points="679.58, 1880.00  679.58, 1872.16, 692.91, 1872.16,  692.91, 1880.00" style="fill:#ff0037;fill-opacity:1.00"/>
<polygon points="692.91, 1880.00  692.91, 1872.16, 699.57, 1872.16,  699.57, 1880.00" style="fill:#ff0037;fill-opacity:1.00"/>
<polygon points="699.57, 1880.00  699.57, 1872.16, 706.23, 1872.16,  706.23, 1880.00" style="fill:#ff0037;fill-opacity:1.00"/>
<polygon points="706.23, 1880.00  706.23, 1872.16, 719.56, 1872.16,  719.56, 1880.00" style="fill:#ff0037;fill-opacity:1.00"/>
<polygon points="719.56, 1880.00  719.56, 1872.16, 732.88, 1872.16,  732.88, 1880.00" style="fill:#ff0037;fill-opacity:1.00"/>
<polygon points="732.88, 1880.00  732.88, 1872.16, 739.55, 1872.16,  739.55, 1880.00" style="fill:#ff0037;fill-opacity:1.00"/>
<polygon points="739.55, 1880.00  739.55, 1872.16, 746.21, 1872.16,  746.21, 1880.00" style="fill:#ff0037;fill-opacity:1.00"/>
<polygon points="746.21, 1880.00  746.21, 1872.16, 759.53, 1872.16,  759.53, 1880.00" style="fill:#ff0037;fill-opacity:1.00"/>
<polygon points="759.53, 1880.00  759.53, 1872.16, 772.86, 1872.16,  772.86, 1880.00" style="fill:#ff0037;fill-opacity:1.00"/>
<polygon points="772.86, 1880.00  772.86, 1872.16, 779.52, 1872.16,  779.52, 1880.00" style="fill:#ff0037;fill-opacity:1.00"/>
<polygon points="779.52, 1880.00  779.52, 1872.16, 786.19, 1872.16,  786.19, 1880.00" style="fill:#ff0037;fill-opacity:1.00"/>
<polygon points="786.19, 1880.00  786.19, 1872.16, 799.51, 1872.16,  799.51, 1880.00" style="fill:#ff0037;fill-opacity:1.00"/>
<polygon points="799.51, 1880.00  799.51, 1872.16, 812.84, 1872.16,  812.84, 1880.00" style="fill:#ff0037;fill-opacity:1.00"/>
<polygon points="812.84, 1880.00  812.84, 1872.16, 819.50, 1872.16,  819.50, 1880.00" style="fill:#ff0037;fill-opacity:1.00"/>
<polygon points="819.50, 1880.00  819.50, 1872.16, 826.16, 1872.16,  826.16, 1880.00" style="fill:#ff0037;fill-opacity:1.00"/>
<polygon points="826.16, 1880.00  826.16, 1872.16, 839.49, 1872.16,  839.49, 1880.00" style="fill:#ff0037;fill-opacity:1.00"/>
<polygon points="839.49, 1880.00  839.49, 1872.16, 852.81, 1872.16,  852.81, 1880.00" style="fill:#ff0037;fill-opacity:1.00"/>
<polygon points="852.81, 1880.00  852.81, 1872.16, 859.47, 1872.16,  859.47, 1880.00" style="fill:#ff0037;fill-opacity:1.00"/>
<polygon points="859.47, 1880.00  859.47, 1872.16, 866.14, 1872.16,  866.14, 1880.00" style="fill:#ff0037;fill-opacity:1.00"/>
<polygon points="866.14, 1880.00  866.14, 1872.16, 879.46, 1872.16,  879.46, 1880.00" style="fill:#ff0037;fill-opacity:1.00"/>
<polygon points="879.46, 1880.00  879.46, 1872.16, 892.79, 1872.16,  892.79, 1880.00" style="fill:#ff0037;fill-opacity:1.00"/>
<polygon points="892.79, 1880.00  892.79, 1872.16, 899.45, 1872.16,  899.45, 1880.00" style="fill:#ff0037;fill-opacity:1.00"/>
<polygon points="899.45, 1880.00  899.45, 1872.16, 906.11, 1872.16,  906.11, 1880.00" style="fill:#ff0037;fill-opacity:1.00"/>
<polygon points="906.11, 1880.00  906.11, 1872.16, 919.44, 1872.16,  919.44, 1880.00" style="fill:#ff0037;fill-opacity:1.00"/>
<polygon points="919.44, 1880.00  919.44, 1872.16, 932.76, 1872.16,  932.76, 1880.00" style="fill:#ff0037;fill-opacity:1.00"/>
<polygon points="932.76, 1880.00  932.76, 1872.16, 939.42, 1872.16,  939.42, 1880.00" style="fill:#ff0037;fill-opacity:1.00"/>
<polygon points="939.42, 1880.00  939.42, 1872.16, 946.09, 1872.16,  946.09, 1880.00" style="fill:#ff0037;fill-opacity:1.00"/>
<polygon points="946.09, 1880.00  946.09, 1872.16, 959.41, 1872.16,  959.41, 1880.00" style="fill:#ff0037;fill-opacity:1.00"/>
<polygon points="959.41, 1880.00  959.41, 1872.16, 972.74, 1872.16,  972.74, 1880.00" style="fill:#ff0037;fill-opacity:1.00"/>
<polygon points="972.74, 1880.00  972.74, 1872.16, 979.40, 1872.16,  979.40, 1880.00" style="fill:#ff0037;fill-opacity:1.00"/>
<polygon points="979.40, 1880.00  979.40, 1872.16, 986.06, 1872.16,  986.06, 1880.00" style="fill:#ff0037;fill-opacity:1.00"/>
<polygon points="986.06, 1880.00  986.06, 1872.16, 999.39, 1872.16,  999.39, 1880.00" style="fill:#ff0037;fill-opacity:1.00"/>
<polygon points="999.39, 1880.00  999.39, 1872.16, 1012.71, 1872.16,  1012.71, 1880.00" style="fill:#ff0037;fill-opacity:1.00"/>
<polygon points="1012.71, 1880.00  1012.71, 1872.16, 1019.38, 1872.16,  1019.38, 1880.00" style="fill:#ff0037;fill-opacity:1.00"/>
<polygon points="1019.38, 1880.00  1019.38, 1872.16, 1026.04, 1872.16,  1026.04, 1880.00" style="fill:#ff0037;fill-opacity:1.00"/>
<polygon points="1026.04, 1880.00  1026.04, 1872.16, 1039.36, 1872.16,  1039.36, 1880.00" style="fill:#ff0037;fill-opacity:1.00"/>
<polygon points="1039.36, 1880.00  1039.36, 1872.16, 1052.69, 1872.16,  1052.69, 1880.00" style="fill:#ff0037;fill-opacity:1.00"/>
<polygon points="1052.69, 1880.00  1052.69, 1872.16, 1059.35, 1872.16,  1059.35, 1880.00" style="fill:#ff0037;fill-opacity:1.00"/>
<polygon points="1059.35, 1880.00  1059.35, 1872.16, 1066.01, 1872.16,  1066.01, 1880.00" style="fill:#ff0037;fill-opacity:1.00"/>
<polygon points="1066.01, 1880.00  1066.01, 1872.16, 1079.34, 1872.16,  1079.34, 1880.00" style="fill:#ff0037;fill-opacity:1.00"/>
<polygon points="1079.34, 1880.00  1079.34, 1872.16, 1092.66, 1872.16,  1092.66, 1880.00" style="fill:#ff0037;fill-opacity:1.00"/>
<polygon points="1092.66, 1880.00  1092.66, 1872.16, 1099.33, 1872.16,  1099.33, 1880.00" style="fill:#ff0037;fill-opacity:1.00"/>
<polygon points="1099.33, 1880.00  1099.33, 1872.16, 1105.99, 1872.16,  1105.99, 1880.00" style="fill:#ff0037;fill-opacity:1.00"/>
<polygon points="1105.99, 1880.00  1105.99, 1872.16, 1119.31, 1872.16,  1119.31, 1880.00" style="fill:#ff0037;fill-opacity:1.00"/>
<polygon points="1119.31, 1880.00  1119.31, 1872.16, 1132.64, 1872.16,  1132.64, 1880.00" style="fill:#ff0037;fill-opacity:1.00"/>
<polygon points="1132.64, 1880.00  1132.64, 1872.16, 1139.30, 1872.16,  1139.30, 1880.00" style="fill:#ff0037;fill-opacity:1.00"/>
<polygon points="1139.30, 1880.00  1139.30, 1872.16, 1145.96, 1872.16,  1145.96, 1880.00" style="fill:#ff0037;fill-opacity:1.00"/>
<polygon points="1145.96, 1880.00  1145.96, 1872.16, 1159.29, 1872.16,  1159.29, 1880.00" style="fill:#ff0037;fill-opacity:1.00"/>
<polygon points="1159.29, 1880.00  1159.29, 1872.16, 1172.62, 1872.16,  1172.62, 1880.00" style="fill:#ff0037;fill-opacity:1.00"/>
<polygon points="1172.62, 1880.00  1172.62, 1872.16, 1179.28, 1872.16,  1179.28, 1880.00" style="fill:#ff0037;fill-opacity:1.00"/>
<polygon points="1179.28, 1880.00  1179.28, 1872.16, 1185.94, 1872.16,  1185.94, 1880.00" style="fill:#ff0037;fill-opacity:1.00"/>
<polygon points="1185.94, 1880.00  1185.94, 1872.16, 1199.27, 1872.16,  1199.27, 1880.00" style="fill:#ff0037;fill-opacity:1.00"/>
<polygon points="1199.27, 1880.00  1199.27, 1872.16, 1212.59, 1872.16,  1212.59, 1880.00" style="fill:#ff0037;fill-opacity:1.00"/>
<polygon points="1212.59, 1880.00  1212.59, 1872.16, 1219.25, 1872.16,  1219.25, 1880.00" style="fill:#ff0037;fill-opacity:1.00"/>
<polygon points="1219.25, 1880.00  1219.25, 1872.16, 1225.92, 1872.16,  1225.92, 1880.00" style="fill:#ff0037;fill-opacity:1.00"/>
<polygon points="1225.92, 1880.00  1225.92, 1872.16, 1239.24, 1872.16,  1239.24, 1880.00" style="fill:#ff0037;fill-opacity:1.00"/>
<polygon points="1239.24, 1880.00  1239.24, 1872.16, 1252.57, 1872.16,  1252.57, 1880.00" style="fill:#ff0037;fill-opacity:1.00"/>
<polygon points="1252.57, 1880.00  1252.57, 1872.16, 1259.23, 1872.16,  1259.23, 1880.00" style="fill:#ff0037;fill-opacity:1.00"/>
<polygon points="1259.23, 1880.00  1259.23, 1872.16, 1265.89, 1872.16,  1265.89, 1880.00" style="fill:#ff0037;fill-opacity:1.00"/>
<polygon points="1265.89, 1880.00  1265.89, 1872.16, 1279.22, 1872.16,  1279.22, 1880.00" style="fill:#ff0037;fill-opacity:1.00"/>
<polygon points="1279.22, 1880.00  1279.22, 1872.16, 1292.54, 1872.16,  1292.54, 1880.00" style="fill:#ff0037;fill-opacity:1.00"/>
<polygon points="1292.54, 1880.00  1292.54, 1872.16, 1299.20, 1872.16,  1299.20, 1880.00" style="fill:#ff0037;fill-opacity:1.00"/>
<polygon points="1299.20, 1880.00  1299.20, 1872.16, 1305.87, 1872.16,  1305.87, 1880.00" style="fill:#ff0037;fill-opacity:1.00"/>
<polygon points="1305.87, 1880.00  1305.87, 1872.16, 1319.19, 1872.16,  1319.19, 1880.00" style="fill:#ff0037;fill-opacity:1.00"/>
<polygon points="1319.19, 1880.00  1319.19, 1872.16, 1332.52, 1872.16,  1332.52, 1880.00" style="fill:#ff0037;fill-opacity:1.00"/>
<polygon points="1332.52, 1880.00  1332.52, 1872.16, 1339.18, 1872.16,  1339.18, 1880.00" style="fill:#ff0037;fill-opacity:1.00"/>
<polygon points="1339.18, 1880.00  1339.18, 1872.16, 1345.84, 1872.16,  1345.84, 1880.00" style="fill:#ff0037;fill-opacity:1.00"/>
<polygon points="1345.84, 1880.00  1345.84, 1872.16, 1359.17, 1872.16,  1359.17, 1880.00" style="fill:#ff0037;fill-opacity:1.00"/>
<polygon points="1359.17, 1880.00  1359.17, 1872.16, 1372.49, 1872.16,  1372.49, 1880.00" style="fill:#ff0037;fill-opacity:1.00"/>
<polygon points="1372.49, 1880.00  1372.49, 1872.16, 1379.16, 1872.16,  1379.16, 1880.00" style="fill:#ff0037;fill-opacity:1.00"/>
<polygon points="1379.16, 1880.00  1379.16, 1872.16, 1385.82, 1872.16,  1385.82, 1880.00" style="fill:#ff0037;fill-opacity:1.00"/>
<polygon points="1385.82, 1880.00  1385.82, 1872.16, 1399.14, 1872.16,  1399.14, 1880.00" style="fill:#ff0037;fill-opacity:1.00"/>
<polygon points="1399.14, 1880.00  1399.14, 1872.16, 1412.47, 1872.16,  1412.47, 1880.00" style="fill:#ff0037;fill-opacity:1.00"/>
<polygon points="1412.47, 1880.00  1412.47, 1872.16, 1419.13, 1872.16,  1419.13, 1880.00" style="fill:#ff0037;fill-opacity:1.00"/>
<polygon points="1419.13, 1880.00  1419.13, 1872.16, 1425.79, 1872.16,  1425.79, 1880.00" style="fill:#ff0037;fill-opacity:1.00"/>
<polygon points="1425.79, 1880.00  1425.79, 1872.16, 1439.12, 1872.16,  1439.12, 1880.00" style="fill:#ff0037;fill-opacity:1.00"/>
<polygon points="1439.12, 1880.00  1439.12, 1872.16, 1452.44, 1872.16,  1452.44, 1880.00" style="fill:#ff0037;fill-opacity:1.00"/>
<polygon points="1452.44, 1880.00  1452.44, 1872.16, 1459.11, 1872.16,  1459.11, 1880.00" style="fill:#ff0037;fill-opacity:1.00"/>
<polygon points="1459.11, 1880.00  1459.11, 1872.16, 1465.77, 1872.16,  1465.77, 1880.00" style="fill:#ff0037;fill-opacity:1.00"/>
<polygon points="1465.77, 1880.00  1465.77, 1872.16, 1479.09, 1872.16,  1479.09, 1880.00" style="fill:#ff0037;fill-opacity:1.00"/>
<polygon points="1479.09, 1880.00  1479.09, 1872.16, 1492.42, 1872.16,  1492.42, 1880.00" style="fill:#ff0037;fill-opacity:1.00"/>
<polygon points="1492.42, 1880.00  1492.42, 1872.16, 1499.08, 1872.16,  1499.08, 1880.00" style="fill:#ff0037;fill-opacity:1.00"/>
<polygon points="1499.08, 1880.00  1499.08, 1872.16, 1505.74, 1872.16,  1505.74, 1880.00" style="fill:#ff0037;fill-opacity:1.00"/>
<polygon points="1505.74, 1880.00  1505.74, 1872.16, 1519.07, 1872.16,  1519.07, 1880.00" style="fill:#ff0037;fill-opacity:1.00"/>
<polygon points="1519.07, 1880.00  1519.07, 1872.16, 1532.39, 1872.16,  1532.39, 1880.00" style="fill:#ff0037;fill-opacity:1.00"/>
<polygon points="1532.39, 1880.00  1532.39, 1872.16, 1539.06, 1872.16,  1539.06, 1880.00" style="fill:#ff0037;fill-opacity:1.00"/>
<polygon points="1539.06, 1880.00  1539.06, 1872.16, 1545.72, 1872.16,  1545.72, 1880.00" style="fill:#ff0037;fill-opacity:1.00"/>
<polygon points="1545.72, 1880.00  1545.72, 1872.16, 1559.05, 1872.16,  1559.05, 1880.00" style="fill:#ff0037;fill-opacity:1.00"/>
<polygon points="1559.05, 1880.00  1559.05, 1872.16, 1572.37, 1872.16,  1572.37, 1880.00" style="fill:#ff0037;fill-opacity:1.00"/>
<polygon points="1572.37, 1880.00  1572.37, 1872.16, 1579.03, 1872.16,  1579.03, 1880.00" style="fill:#ff0037;fill-opacity:1.00"/>
<polygon points="1579.03, 1880.00  1579.03, 1872.16, 1585.70, 1872.16,  1585.70, 1880.00" style="fill:#ff0037;fill-opacity:1.00"/>
<polygon points="1585.70, 1880.00  1585.70, 1872.16, 1599.02, 1872.16,  1599.02, 1880.00" style="fill:#ff0037;fill-opacity:1.00"/>
<polygon points="1599.02, 1880.00  1599.02, 1872.16, 1612.35, 1872.16,  1612.35, 1880.00" style="fill:#ff0037;fill-opacity:1.00"/>
<polygon points="1612.35, 1880.00  1612.35, 1872.16, 1619.01, 1872.16,  1619.01, 1880.00" style="fill:#ff0037;fill-opacity:1.00"/>
<polygon points="1619.01, 1880.00  1619.01, 1872.16, 1625.67, 1872.16,  1625.67, 1880.00" style="fill:#ff0037;fill-opacity:1.00"/>
<polygon points="1625.67, 1880.00  1625.67, 1872.16, 1639.00, 1872.16,  1639.00, 1880.00" style="fill:#ff0037;fill-opacity:1.00"/>
<polygon points="1639.00, 1880.00  1639.00, 1872.16, 1652.32, 1872.16,  1652.32, 1880.00" style="fill:#ff0037;fill-opacity:1.00"/>
<polygon points="1652.32, 1880.00  1652.32, 1872.16, 1658.98, 1872.16,  1658.98, 1880.00" style="fill:#ff0037;fill-opacity:1.00"/>
<polygon points="1658.98, 1880.00  1658.98, 1872.16, 1665.65, 1872.16,  1665.65, 1880.00" style="fill:#ff0037;fill-opacity:1.00"/>
<polygon points="1665.65, 1880.00  1665.65, 1872.16, 1678.97, 1872.16,  1678.97, 1880.00" style="fill:#ff0037;fill-opacity:1.00"/>
<polygon points="1678.97, 1880.00  1678.97, 1872.16, 1692.30, 1872.16,  1692.30, 1880.00" style="fill:#ff0037;fill-opacity:1.00"/>
<polygon points="1692.30, 1880.00  1692.30, 1872.16, 1698.96, 1872.16,  1698.96, 1880.00" style="fill:#ff0037;fill-opacity:1.00"/>
<polygon points="1698.96, 1880.00  1698.96, 1872.16, 1705.62, 1872.16,  1705.62, 1880.00" style="fill:#ff0037;fill-opacity:1.00"/>
<polygon points="1705.62, 1880.00  1705.62, 1872.16, 1718.95, 1872.16,  1718.95, 1880.00" style="fill:#ff0037;fill-opacity:1.00"/>
<polygon points="1718.95, 1880.00  1718.95, 1872.16, 1732.27, 1872.16,  1732.27, 1880.00" style="fill:#ff0037;fill-opacity:1.00"/>
<polygon points="1732.27, 1880.00  1732.27, 1872.16, 1738.94, 1872.16,  1738.94, 1880.00" style="fill:#ff0037;fill-opacity:1.00"/>
<polygon points="1738.94, 1880.00  1738.94, 1872.16, 1745.60, 1872.16,  1745.60, 1880.00" style="fill:#ff0037;fill-opacity:1.00"/>
<polygon points="1745.60, 1880.00  1745.60, 1872.16, 1758.92, 1872.16,  1758.92, 1880.00" style="fill:#ff0037;fill-opacity:1.00"/>
<polygon points="1758.92, 1880.00  1758.92, 1872.16, 1772.25, 1872.16,  1772.25, 1880.00" style="fill:#ff0037;fill-opacity:1.00"/>
<polygon points="1772.25, 1880.00  1772.25, 1872.16, 1778.91, 1872.16,  1778.91, 1880.00" style="fill:#ff0037;fill-opacity:1.00"/>
<polygon points="1778.91, 1880.00  1778.91, 1872.16, 1785.57, 1872.16,  1785.57, 1880.00" style="fill:#ff0037;fill-opacity:1.00"/>
<polygon points="1785.57, 1880.00  1785.57, 1872.16, 1798.90, 1872.16,  1798.90, 1880.00" style="fill:#ff0037;fill-opacity:1.00"/>
<polygon points="1798.90, 1880.00  1798.90, 1872.16, 1812.22, 1872.16,  1812.22, 1880.00" style="fill:#ff0037;fill-opacity:1.00"/>
<polygon points="1812.22, 1880.00  1812.22, 1872.16, 1818.89, 1872.16,  1818.89, 1880.00" style="fill:#ff0037;fill-opacity:1.00"/>
<polygon points="1818.89, 1880.00  1818.89, 1872.16, 1825.55, 1872.16,  1825.55, 1880.00" style="fill:#ff0037;fill-opacity:1.00"/>
<polygon points="1825.55, 1880.00  1825.55, 1872.16, 1838.87, 1872.16,  1838.87, 1880.00" style="fill:#ff0037;fill-opacity:1.00"/>
<polygon points="1838.87, 1880.00  1838.87, 1872.16, 1852.20, 1872.16,  1852.20, 1880.00" style="fill:#ff0037;fill-opacity:1.00"/>
<polygon points="1852.20, 1880.00  1852.20, 1872.16, 1858.86, 1872.16,  1858.86, 1880.00" style="fill:#ff0037;fill-opacity:1.00"/>
<polygon points="1858.86, 1880.00  1858.86, 1872.16, 1865.52, 1872.16,  1865.52, 1880.00" style="fill:#ff0037;fill-opacity:1.00"/>
<polygon points="1865.52, 1880.00  1865.52, 1872.16, 1878.85, 1872.16,  1878.85, 1880.00" style="fill:#ff0037;fill-opacity:1.00"/>
<polygon points="1878.85, 1880.00  1878.85, 1872.16, 1892.17, 1872.16,  1892.17, 1880.00" style="fill:#ff0037;fill-opacity:1.00"/>
<polygon points="1892.17, 1880.00  1892.17, 1872.16, 1898.84, 1872.16,  1898.84, 1880.00" style="fill:#ff0037;fill-opacity:1.00"/>
<polygon points="1898.84, 1880.00  1898.84, 1872.16, 1905.50, 1872.16,  1905.50, 1880.00" style="fill:#ff0037;fill-opacity:1.00"/>
<polygon points="1905.50, 1880.00  1905.50, 1872.16, 1918.82, 1872.16,  1918.82, 1880.00" style="fill:#ff0037;fill-opacity:1.00"/>
</g>
</g>
</g></svg>
